<svg id="b70fc5d3-babd-44f7-8447-4610608f93a9" data-name="logo_PIN_black" xmlns="http://www.w3.org/2000/svg" viewBox="0 0 96.8156 51.0227">
  <path fill="white" d="M13.2752,10.8387a1.4721,1.4721,0,0,0,.898.7831,2.159,2.159,0,0,0,1.62-.4,7.1656,7.1656,0,0,0,3.745-5.675c.047-1.52-.684-2.301-2.442-2.603a7.13,7.13,0,0,0-3.854,4.118,4.2418,4.2418,0,0,0,.033,3.777m10.668-2.818c-1.436,3.679-5.454,6.0741-9.52,6.0741a9.8029,9.8029,0,0,1-3.178-.5191,4.4677,4.4677,0,0,1-3.09-2.806,6.3389,6.3389,0,0,1,.9159-5.591A10.6721,10.6721,0,0,1,18.3.0057s2.083.033,2.663.687a2.2549,2.2549,0,0,1,.23,1.001,4.487,4.487,0,0,1,2.94,2.037,5.1631,5.1631,0,0,1-.19,4.29m-4.706,27.633a170.1715,170.1715,0,0,0-1.401-17.221c-.171-.628-.885-2.0539-3.82-1.7339a3.121,3.121,0,0,0-2.494,1.5229,92.2176,92.2176,0,0,0-5.325,11.189,98.2358,98.2358,0,0,0-6.171,20.105.8742.8742,0,0,0,.451,1.014,4.3007,4.3007,0,0,0,2.021.493,4.2378,4.2378,0,0,0,1.9711-.474l.0689-.036.281-1.046c2.436-9.098,4.5461-16.978,8.871-25.545.423,4.75.6041,9.26.795,14.025.074,1.842.15,3.748.242,5.659.043.835.058,1.794.073,2.722.0131.833.027,1.694.06,2.447a1.9144,1.9144,0,0,0,1.019,1.666,3.2671,3.2671,0,0,0,2.992.005c1.055-.58.966-2.141.788-5.252-.042-.736-.307-7.246-.422-9.54M87.1856,25.0263c0-1.419-.511-1.967-1.4379-1.967-.8141,0-1.6271.529-1.6271,1.967Zm-6.111,1.135c0-3.556,2.1761-5.165,4.824-5.165,2.99,0,4.2381,1.817,4.2381,4.56,0,.322-.0191.946-.056,1.287h-5.998c.057,1.627.738,2.232,1.987,2.232a1.51,1.51,0,0,0,1.608-1.4l2.403.587c-.36,1.835-1.8361,3.027-4.1821,3.027-3.6509,0-4.824-2.46-4.824-5.128m-1.722,4.901H76.4957V16.7783h2.8569Zm-11.2569-2.725a2.8957,2.8957,0,0,0,1.722.662c1.3239,0,1.8539-1.097,1.8539-3.008,0-1.986-.586-2.724-1.7409-2.724a3.2135,3.2135,0,0,0-1.835.756Zm-2.819-7.133h2.4219l.17,1.003a4.3144,4.3144,0,0,1,3.084-1.211c2.1,0,3.708,1.287,3.708,4.919,0,3.917-1.835,5.374-4.0109,5.374a3.6172,3.6172,0,0,1-2.611-.946v4.73h-2.762Zm-4.73,4.863c0-2.157-.586-2.914-1.854-2.914-1.286,0-2.0049.814-2.0049,2.952,0,2.194.549,3.065,1.9489,3.065,1.248,0,1.91-.795,1.91-3.103m-6.848.113c0-3.159,1.646-5.184,5.07-5.184s4.749,2.063,4.749,4.976c0,3.217-1.4759,5.317-5.014,5.317-3.576,0-4.805-2.157-4.805-5.109m-4.238-1.154c0-1.419-.511-1.967-1.4379-1.967-.814,0-1.627.529-1.627,1.967Zm-6.1119,1.135c0-3.556,2.1759-5.165,4.825-5.165,2.9889,0,4.238,1.817,4.238,4.56,0,.322-.0191.946-.057,1.287H46.3576c.056,1.627.738,2.232,1.986,2.232a1.51,1.51,0,0,0,1.6081-1.4l2.403.587c-.3591,1.835-1.8351,3.027-4.181,3.027-3.651,0-4.825-2.46-4.825-5.128m-6.2241-1.873c1.4951,0,2.687-.435,2.687-2.44,0-1.76-1.041-2.138-2.46-2.138h-1.4v4.578Zm-1.1729,6.774h-2.895V17.3643h5.1839c3.5,0,4.56,2.1,4.56,4.276,0,3.292-1.7971,4.994-5.354,4.994h-1.495Zm58.0259,16.195a2.588,2.588,0,0,1-1.6839.7c-1.3431,0-1.892-1.041-1.892-2.8,0-1.703.5489-2.971,1.987-2.971a2.7081,2.7081,0,0,1,1.5889.549Zm2.838-11.56h-2.743v5.052a3.3871,3.3871,0,0,0-2.498-.833c-2.043,0-4.162,1.381-4.162,5.335,0,3.538,1.57,4.957,3.8781,4.957a3.6963,3.6963,0,0,0,2.9139-1.211l.0571.019.17.965h2.3839Zm-16.952,8.249c0-1.438.8141-1.968,1.627-1.968.9271,0,1.4381.549,1.4381,1.968Zm1.778,6.262c2.3461,0,3.822-1.192,4.182-3.027l-2.403-.586a1.51,1.51,0,0,1-1.608,1.4c-1.249,0-1.93-.606-1.987-2.233h5.998c.0381-.34.056-.965.056-1.286,0-2.744-1.248-4.56-4.238-4.56-2.648,0-4.8239,1.608-4.8239,5.165,0,2.668,1.1729,5.127,4.8239,5.127m-12.316-6.262c0-1.438.8131-1.968,1.627-1.968.927,0,1.4381.549,1.4381,1.968Zm1.778,6.262c2.346,0,3.822-1.192,4.181-3.027l-2.402-.586a1.5107,1.5107,0,0,1-1.6079,1.4c-1.249,0-1.93-.606-1.9871-2.233h5.997c.038-.34.057-.965.057-1.286,0-2.744-1.248-4.56-4.238-4.56-2.649,0-4.8239,1.608-4.8239,5.165,0,2.668,1.1729,5.127,4.8239,5.127m-6.6589-.227V36.2833H61.7956v9.706l-5.1839-9.706h-3.481v13.698h2.667v-9.668l5.279,9.668Zm-17.69-6.735c0-2.252-.946-3.33-3.1219-3.33a4.6049,4.6049,0,0,0-3.14,1.192l-.1519-.984H37.8056v9.857h2.857V43a3.1676,3.1676,0,0,1,1.93-.776c.889,0,1.3051.454,1.3051,1.514v6.243h2.8569Zm-11.106-3.122h-2.857v9.857h2.857Zm.3031-3.027a1.7216,1.7216,0,1,0-1.722,1.741,1.5733,1.5733,0,0,0,1.722-1.741"/>
</svg>
